<svg viewBox="0 0 16 14" fill="none" xmlns="http://www.w3.org/2000/svg">
<path d="M9.77406 5.66972L9.77968 5.66591L9.75986 5.59636C9.71629 5.44343 9.56404 5.32771 9.39894 5.34777C9.3677 5.34945 9.29244 5.35936 9.19015 5.38435C9.07401 5.41271 8.91759 5.46179 8.74079 5.54499C8.40546 5.70279 7.99712 5.98327 7.65264 6.47634C7.38765 6.30794 6.97329 6.15796 6.42657 6.29402C6.29059 6.31888 6.17487 6.43296 6.17123 6.59228C6.08096 7.23023 6.30843 7.8475 6.61303 8.35911C6.91331 8.86347 7.2949 9.27593 7.54664 9.52104C7.56253 9.55826 7.58047 9.59407 7.59547 9.624L7.59572 9.62451C7.61101 9.65501 7.62175 9.67672 7.62825 9.69231C7.63644 9.86314 7.64826 10.0076 7.66011 10.1147C7.66621 10.1698 7.6724 10.2157 7.67825 10.2507C7.68116 10.268 7.68414 10.2836 7.68719 10.2967C7.68869 10.3032 7.69091 10.3123 7.69416 10.3219C7.72458 10.4853 7.88324 10.5874 8.03114 10.5874H8.07927V10.5882L8.09185 10.5866C8.27321 10.5636 8.41341 10.385 8.36927 10.1959L8.36856 10.1914L8.36491 10.1667C8.36178 10.1448 8.3574 10.1121 8.3525 10.07C8.34364 9.99383 8.33311 9.8867 8.32525 9.75596C8.56209 9.49729 9.20009 8.75691 9.5287 8.10039L9.52871 8.1004L9.52942 8.09892C9.81887 7.49614 9.87594 6.8829 9.86164 6.41689C9.85449 6.18353 9.8294 5.98603 9.80611 5.84375C9.79445 5.77257 9.78325 5.71525 9.77502 5.67445L9.77406 5.66972ZM6.98184 7.07868C6.92089 7.12226 6.88061 7.17856 6.85875 7.23978C6.83691 7.1386 6.82344 7.03695 6.82012 6.93552C6.98558 6.93513 7.11764 6.97432 7.21921 7.02475C7.14075 7.016 7.05968 7.03355 6.99035 7.07322L6.99009 7.07278L6.98184 7.07868ZM8.89408 7.78807C8.75732 8.05732 8.55613 8.35219 8.35427 8.61332C8.44356 8.07772 8.62867 7.48317 9.00882 6.9634L9.00882 6.96341L9.00945 6.96254C9.11806 6.81064 9.0997 6.60229 8.93815 6.48677C8.82306 6.40448 8.67557 6.39508 8.5606 6.46562C8.76998 6.28705 8.97679 6.1833 9.13933 6.12288C9.20054 6.49412 9.20815 7.15942 8.9024 7.77142L8.89408 7.78807ZM8.00879 7.1728C8.14762 6.90657 8.30805 6.70292 8.47054 6.5471C8.46801 6.55037 8.46553 6.5537 8.46308 6.55709C8.17363 6.94354 7.97563 7.36373 7.84141 7.77634C7.86209 7.57296 7.91471 7.36907 8.00879 7.1728Z" fill="#213F7D" stroke="#213F7D" stroke-width="0.2"/>
<path d="M4.46001 10.84C4.46001 11.0234 4.61665 11.18 4.80001 11.18C4.98336 11.18 5.14001 11.0234 5.14001 10.84V4.76002C5.14001 4.57667 4.98336 4.42002 4.80001 4.42002C4.61665 4.42002 4.46001 4.57667 4.46001 4.76002V10.84Z" fill="#213F7D" stroke="#213F7D" stroke-width="0.2"/>
<path d="M2.86001 10.84C2.86001 11.0234 3.01665 11.18 3.20001 11.18C3.38336 11.18 3.54001 11.0234 3.54001 10.84V4.76002C3.54001 4.57667 3.38336 4.42002 3.20001 4.42002C3.01665 4.42002 2.86001 4.57667 2.86001 4.76002V10.84Z" fill="#213F7D" stroke="#213F7D" stroke-width="0.2"/>
<path d="M10.86 10.84C10.86 11.0234 11.0167 11.18 11.2 11.18C11.3834 11.18 11.54 11.0234 11.54 10.84V4.76002C11.54 4.57667 11.3834 4.42002 11.2 4.42002C11.0167 4.42002 10.86 4.57667 10.86 4.76002V10.84Z" fill="#213F7D" stroke="#213F7D" stroke-width="0.2"/>
<path d="M12.46 10.84C12.46 11.0234 12.6167 11.18 12.8 11.18C12.9834 11.18 13.14 11.0234 13.14 10.84V4.76002C13.14 4.57667 12.9834 4.42002 12.8 4.42002C12.6167 4.42002 12.46 4.57667 12.46 4.76002V10.84Z" fill="#213F7D" stroke="#213F7D" stroke-width="0.2"/>
<path d="M13.5818 4.30009H13.36H2.64001C2.48646 4.30009 2.34565 4.19249 2.31859 4.04581C2.27551 3.88575 2.35045 3.75023 2.47268 3.66876L2.47682 3.66599L2.47688 3.6661L7.8366 0.466273C7.83664 0.466247 7.83668 0.466221 7.83673 0.466195L7.83688 0.466101L7.88815 0.551963C7.96815 0.503838 8.0644 0.503838 8.12815 0.551963L13.5818 4.30009ZM13.5818 4.30009L13.5366 4.24891C13.6335 4.18894 13.7013 4.08338 13.7148 3.97143L13.7156 3.97152V3.95939C13.7156 3.82919 13.6337 3.69708 13.517 3.64614L8.1835 0.468537L13.5818 4.30009ZM12.119 3.62009H3.86584L7.99992 1.1485L12.119 3.62009Z" fill="#213F7D" stroke="#213F7D" stroke-width="0.2"/>
<path d="M2.64 11.9801H13.36C13.5434 11.9801 13.7 11.8235 13.7 11.6401C13.7 11.4568 13.5434 11.3001 13.36 11.3001H2.64C2.45665 11.3001 2.3 11.4568 2.3 11.6401C2.3 11.8235 2.45665 11.9801 2.64 11.9801Z" fill="#213F7D" stroke="#213F7D" stroke-width="0.2"/>
<path d="M1.84001 12.7802H14.16C14.3434 12.7802 14.5 12.6235 14.5 12.4402C14.5 12.2568 14.3434 12.1002 14.16 12.1002H1.84001C1.65665 12.1002 1.50001 12.2568 1.50001 12.4402C1.50001 12.6235 1.65665 12.7802 1.84001 12.7802Z" fill="#213F7D" stroke="#213F7D" stroke-width="0.2"/>
<path d="M1.04 13.58H14.96C15.1434 13.58 15.3 13.4234 15.3 13.24C15.3 13.0566 15.1434 12.9 14.96 12.9H1.04C0.85665 12.9 0.700003 13.0566 0.700003 13.24C0.700003 13.4234 0.85665 13.58 1.04 13.58Z" fill="#213F7D" stroke="#213F7D" stroke-width="0.2"/>
</svg>
