<svg viewBox="0 0 16 16" fill="none" xmlns="http://www.w3.org/2000/svg">
<g clip-path="url(#clip0_5423_60064)">
<path opacity="0.4" d="M4.76287 11.8763C4.27077 11.7742 3.79418 11.608 3.34527 11.3821C2.56298 11.498 1.76395 11.4051 1.02913 11.1128C0.608966 10.9444 0.239585 11.4464 0.52596 11.797C0.960081 12.3262 1.4796 12.7791 2.06306 13.1371C3.57367 14.0704 5.44706 14.2437 7.10013 13.6828C7.5434 13.0917 7.83336 12.4 7.94411 11.6695C6.92102 12.0205 5.82278 12.0918 4.76287 11.8763ZM4.33062 7.94419C3.97963 6.92108 3.90824 5.82279 4.12383 4.76286C4.22592 4.27079 4.39205 3.79422 4.61797 3.34532C4.50213 2.563 4.59503 1.76397 4.88725 1.0291C5.05571 0.609052 4.55352 0.239484 4.20305 0.5258C3.67382 0.959891 3.22091 1.47945 2.8631 2.06297C1.92976 3.57365 1.75642 5.447 2.31721 7.10007C2.90836 7.54336 3.60008 7.83336 4.33062 7.94419ZM11.6694 8.05588C12.0204 9.07899 12.0918 10.1773 11.8762 11.2372C11.7741 11.7293 11.608 12.2059 11.3821 12.6548C11.4979 13.4371 11.405 14.2361 11.1128 14.971C10.9443 15.391 11.4465 15.7606 11.797 15.4743C12.3262 15.0402 12.7791 14.5206 13.1369 13.9371C14.0703 12.4264 14.2436 10.5531 13.6828 8.9C13.0917 8.45671 12.4 8.16671 11.6694 8.05588ZM15.4741 4.2031C15.04 3.67385 14.5205 3.22089 13.937 2.86296C12.4264 1.92967 10.553 1.75639 8.89992 2.31718C8.45663 2.9083 8.16667 3.60002 8.05593 4.33054C9.07902 3.97961 10.1773 3.90822 11.2372 4.12376C11.7293 4.22587 12.2059 4.39202 12.6548 4.61796C13.4371 4.50201 14.2361 4.59491 14.9709 4.88725C15.3911 5.0557 15.7605 4.55357 15.4741 4.2031Z" fill="#213F7D"/>
<path d="M15.8305 8.56583C15.3056 6.34378 13.4762 4.5709 11.2372 4.12382C10.1773 3.90828 9.07901 3.97967 8.05592 4.3306C8.16965 3.57389 8.47482 2.85878 8.94249 2.25311C9.41016 1.64744 10.0248 1.1713 10.7281 0.86985C11.1443 0.691872 11.0505 0.0755381 10.6002 0.03019C9.91901 -0.0370417 9.23136 0.0100551 8.56568 0.169534C6.34378 0.694435 4.57084 2.5239 4.12382 4.76291C3.90823 5.82285 3.97962 6.92114 4.33061 7.94425C3.57389 7.83049 2.85878 7.5253 2.25311 7.05762C1.64744 6.58994 1.17129 5.97528 0.869821 5.27195C0.691844 4.85587 0.0755147 4.94956 0.0301063 5.39988C-0.0371342 6.08107 0.00998299 6.76871 0.169509 7.43436C0.694408 9.6564 2.52386 11.4293 4.76286 11.8764C5.82277 12.0919 6.92102 12.0205 7.94411 11.6696C7.83038 12.4263 7.52521 13.1414 7.05754 13.7471C6.58987 14.3527 5.97522 14.8289 5.27189 15.1303C4.85575 15.3083 4.9495 15.9246 5.39982 15.97C6.08102 16.0372 6.76867 15.9901 7.43435 15.8307C9.65625 15.3058 11.4292 13.4763 11.8762 11.2373C12.0918 10.1773 12.0204 9.07905 11.6694 8.05594C12.4261 8.1697 13.1412 8.47489 13.7469 8.94257C14.3526 9.41025 14.8287 10.0249 15.1302 10.7282C15.3082 11.1443 15.9245 11.0506 15.9699 10.6003C16.0372 9.91912 15.99 9.23148 15.8305 8.56583ZM8.00001 9.50009C7.70334 9.50009 7.41333 9.41212 7.16666 9.2473C6.91998 9.08248 6.72772 8.84822 6.61419 8.57413C6.50065 8.30004 6.47095 7.99844 6.52882 7.70747C6.5867 7.41649 6.72956 7.14922 6.93934 6.93944C7.14912 6.72966 7.41639 6.5868 7.70736 6.52892C7.99834 6.47104 8.29994 6.50074 8.57403 6.61427C8.84811 6.72781 9.08238 6.92006 9.24721 7.16674C9.41203 7.41341 9.5 7.70342 9.5 8.00009C9.5 8.39791 9.34196 8.77944 9.06066 9.06074C8.77936 9.34204 8.39783 9.50008 8.00001 9.50009Z" fill="#213F7D"/>
</g>
<defs>
<clipPath id="clip0_5423_60064">
<rect width="16" height="16" fill="white"/>
</clipPath>
</defs>
</svg>
