<svg viewBox="0 0 19 16" fill="none" xmlns="http://www.w3.org/2000/svg">
<path d="M15.4137 3.79693L14.0006 2.38381C13.6879 2.07382 13.2653 1.8999 12.825 1.8999H6.09187C5.6525 1.8999 5.22797 2.07506 4.91625 2.38381L3.50312 3.79693H0V11.388H1.9C2.4225 11.388 2.84406 10.9665 2.84703 10.4469H3.11719L5.62875 12.7151C6.54609 13.4602 7.81969 13.478 8.76375 12.8279C9.13484 13.1485 9.53562 13.2999 9.98391 13.2999C10.5242 13.2999 11.0319 13.0802 11.4327 12.5874C12.0887 12.8457 12.8636 12.6646 13.3327 12.0887L14.1105 11.1297C14.2767 10.9249 14.3806 10.6904 14.4341 10.4469H16.153C16.1559 10.9665 16.5805 11.388 17.1 11.388H19V3.79693H15.4137ZM1.425 10.438C1.16375 10.438 0.95 10.2243 0.95 9.96303C0.95 9.70178 1.16375 9.48803 1.425 9.48803C1.68625 9.48803 1.9 9.70178 1.9 9.96303C1.9 10.2272 1.68625 10.438 1.425 10.438ZM13.0031 10.2332L12.2283 11.1891C12.1452 11.2901 11.9967 11.3079 11.8928 11.2247L11.1833 10.6488L10.2927 11.7324C10.1145 11.9491 9.84734 11.8749 9.75828 11.8037L8.66578 10.8685L8.20266 11.4385C7.79 11.9462 7.03891 12.0233 6.56094 11.6344L3.67234 9.02193H2.85V5.21897H4.09391L5.92563 3.39021C5.985 3.36646 6.03547 3.34568 6.09484 3.32193H7.77812L6.62922 4.37584C5.75641 5.17443 5.70594 6.52225 6.49859 7.38318C6.93797 7.86412 8.31547 8.60631 9.51188 7.51381L9.75531 7.29115L12.9675 9.89772C13.0684 9.98084 13.0833 10.1322 13.0031 10.2332ZM16.15 9.02193H14.0956C14.0273 8.93881 13.9502 8.86162 13.867 8.79334L10.8181 6.3174L11.1892 5.97896C11.3822 5.80084 11.397 5.501 11.2189 5.30803L10.8953 4.96068C10.7172 4.76772 10.4173 4.75584 10.2244 4.931L8.58563 6.43318C8.30359 6.69146 7.82266 6.71225 7.55844 6.43318C7.28234 6.13928 7.30609 5.68803 7.59406 5.42678L9.54156 3.64256C9.76125 3.44068 10.0462 3.33084 10.3431 3.33084L12.828 3.3249C12.8903 3.3249 12.9497 3.34865 12.9913 3.39318L14.823 5.22193H16.15V9.02193ZM17.575 10.438C17.3137 10.438 17.1 10.2243 17.1 9.96303C17.1 9.70178 17.3137 9.48803 17.575 9.48803C17.8363 9.48803 18.05 9.70178 18.05 9.96303C18.05 10.2272 17.8363 10.438 17.575 10.438Z" fill="#213F7D"/>
</svg>
