<svg viewBox="0 0 16 15" fill="none" xmlns="http://www.w3.org/2000/svg">
<g clip-path="url(#clip0_5094_5793)">
<path opacity="0.4" d="M9.33333 12.8775V10.2223C9.33333 10.1044 9.28651 9.99133 9.20316 9.90798C9.11981 9.82463 9.00676 9.77781 8.88889 9.77781H7.11111C6.99323 9.77781 6.88019 9.82463 6.79684 9.90798C6.71349 9.99133 6.66666 10.1044 6.66666 10.2223V12.8809C6.66667 12.9984 6.62015 13.1111 6.53728 13.1943C6.45441 13.2776 6.34193 13.3247 6.22444 13.3253L3.11111 13.3334C2.99323 13.3334 2.88019 13.2865 2.79684 13.2032C2.71349 13.1198 2.66666 13.0068 2.66666 12.8889V8.33503L7.78861 4.11697C7.8488 4.06845 7.92379 4.04199 8.00111 4.04199C8.07842 4.04199 8.15341 4.06845 8.21361 4.11697L13.3333 8.33336V12.8889C13.3333 13.0068 13.2865 13.1198 13.2032 13.2032C13.1198 13.2865 13.0068 13.3334 12.8889 13.3334L9.77777 13.3247C9.71917 13.3248 9.66115 13.3132 9.60705 13.2907C9.55295 13.2681 9.50383 13.2352 9.46252 13.1936C9.42121 13.152 9.38853 13.1027 9.36636 13.0485C9.34419 12.9942 9.33296 12.9361 9.33333 12.8775Z" fill="#213F7D"/>
<path d="M15.9255 7.45419L15.2172 8.31531C15.1894 8.34916 15.1552 8.3772 15.1165 8.39783C15.0779 8.41846 15.0356 8.43127 14.992 8.43553C14.9484 8.43978 14.9044 8.4354 14.8624 8.42264C14.8205 8.40988 14.7816 8.38898 14.7477 8.36114L8.2136 2.97808C8.1534 2.92956 8.07841 2.9031 8.0011 2.9031C7.92378 2.9031 7.84879 2.92956 7.7886 2.97808L1.25473 8.36114C1.18644 8.41728 1.09864 8.44398 1.01065 8.43539C0.922669 8.42679 0.841702 8.3836 0.785564 8.31531L0.0772327 7.45419C0.0209681 7.38604 -0.0059276 7.29833 0.00245881 7.21035C0.0108452 7.12237 0.0538272 7.04132 0.121955 6.98503L7.15249 1.19447C7.39115 0.998077 7.69063 0.890697 7.99971 0.890697C8.30879 0.890697 8.60826 0.998077 8.84693 1.19447L11.3333 3.23919V1.22225C11.3333 1.13384 11.3684 1.04906 11.4309 0.986547C11.4934 0.924035 11.5782 0.888916 11.6666 0.888916H13.2222C13.3106 0.888916 13.3954 0.924035 13.4579 0.986547C13.5204 1.04906 13.5555 1.13384 13.5555 1.22225V5.06975L15.8777 6.98392C15.9119 7.01159 15.9402 7.04573 15.961 7.08438C15.9819 7.12302 15.995 7.16542 15.9994 7.20912C16.0038 7.25283 15.9996 7.29697 15.9869 7.33903C15.9742 7.38109 15.9534 7.42023 15.9255 7.45419Z" fill="#213F7D"/>
</g>
<defs>
<clipPath id="clip0_5094_5793">
<rect width="16" height="14.2222" fill="white"/>
</clipPath>
</defs>
</svg>
