<svg viewBox="0 0 16 15" fill="none" xmlns="http://www.w3.org/2000/svg">
<g clip-path="url(#clip0_5423_60166)">
<path opacity="0.4" d="M15.5555 6.2223H14.7358C14.4921 5.67115 14.1388 5.17535 13.6975 4.76508L14.2222 2.66675H13.3333C12.5166 2.66675 11.7947 3.04175 11.3055 3.62008C11.0952 3.58953 10.8855 3.55564 10.6666 3.55564H7.11106C4.47718 3.55564 2.66662 5.74675 2.66662 8.00008C2.66608 8.69015 2.82649 9.37084 3.1351 9.98806C3.44371 10.6053 3.89201 11.142 4.4444 11.5556V13.7779C4.4444 13.8957 4.49122 14.0088 4.57457 14.0921C4.65792 14.1755 4.77097 14.2223 4.88884 14.2223H6.66662C6.78449 14.2223 6.89754 14.1755 6.98089 14.0921C7.06424 14.0088 7.11106 13.8957 7.11106 13.7779V12.4445H10.6666V13.7779C10.6666 13.8957 10.7134 14.0088 10.7968 14.0921C10.8801 14.1755 10.9932 14.2223 11.1111 14.2223H12.8888C13.0067 14.2223 13.1198 14.1755 13.2031 14.0921C13.2865 14.0088 13.3333 13.8957 13.3333 13.7779V11.5356C13.6617 11.2875 13.9541 10.9951 14.2022 10.6667H15.5555C15.6734 10.6667 15.7864 10.6199 15.8698 10.5366C15.9531 10.4532 16 10.3402 16 10.2223V6.66675C16 6.54887 15.9531 6.43583 15.8698 6.35248C15.7864 6.26913 15.6734 6.2223 15.5555 6.2223ZM12 8.00008C11.9121 8.00008 11.8261 7.97402 11.753 7.92518C11.6799 7.87634 11.623 7.80693 11.5893 7.72572C11.5557 7.64451 11.5469 7.55514 11.564 7.46893C11.5812 7.38272 11.6235 7.30352 11.6857 7.24137C11.7478 7.17921 11.827 7.13688 11.9132 7.11973C11.9995 7.10258 12.0888 7.11138 12.17 7.14502C12.2512 7.17866 12.3207 7.23563 12.3695 7.30872C12.4183 7.38181 12.4444 7.46773 12.4444 7.55564C12.4444 7.67351 12.3976 7.78656 12.3142 7.86991C12.2309 7.95326 12.1178 8.00008 12 8.00008Z" fill="#213F7D"/>
<path d="M1.42384 7.09778C1.33804 7.08034 1.25651 7.04618 1.18392 6.99724C1.11132 6.9483 1.04908 6.88554 1.00074 6.81254C0.952404 6.73954 0.918918 6.65774 0.902195 6.5718C0.885473 6.48586 0.885842 6.39746 0.903282 6.31167C0.964948 5.995 1.26106 5.77778 1.58328 5.77778H1.61106C1.65526 5.77778 1.69765 5.76022 1.72891 5.72896C1.76017 5.69771 1.77773 5.65531 1.77773 5.61111V5.05556C1.77773 5.01135 1.76017 4.96896 1.72891 4.9377C1.69765 4.90645 1.65526 4.88889 1.61106 4.88889C0.819393 4.88889 0.113837 5.45556 0.0130037 6.23944C0.00421335 6.30603 -0.000148091 6.37312 -5.18473e-05 6.44028C-0.000567906 6.85338 0.163022 7.24977 0.454737 7.54227C0.746453 7.83476 1.1424 7.99941 1.5555 8H2.66661C2.66691 7.70126 2.69828 7.40336 2.76023 7.11111H1.5555C1.51128 7.11111 1.46716 7.10665 1.42384 7.09778ZM11.9999 7.11111C11.912 7.11111 11.8261 7.13718 11.753 7.18601C11.6799 7.23485 11.623 7.30426 11.5893 7.38547C11.5557 7.46669 11.5469 7.55605 11.564 7.64226C11.5812 7.72848 11.6235 7.80767 11.6857 7.86983C11.7478 7.93198 11.827 7.97431 11.9132 7.99146C11.9995 8.00861 12.0888 7.99981 12.17 7.96617C12.2512 7.93253 12.3207 7.87556 12.3695 7.80248C12.4183 7.72939 12.4444 7.64346 12.4444 7.55556C12.4444 7.43768 12.3976 7.32464 12.3142 7.24129C12.2309 7.15794 12.1178 7.11111 11.9999 7.11111ZM8.51384 8.07944e-08C8.07582 -0.000107729 7.64453 0.107681 7.25807 0.313839C6.8716 0.519998 6.54187 0.818179 6.29801 1.18203C6.05415 1.54588 5.90368 1.9642 5.85988 2.40002C5.81608 2.83584 5.88031 3.27573 6.04689 3.68083C6.39539 3.59701 6.75262 3.55495 7.11106 3.55556H10.6666C10.7847 3.5565 10.9026 3.56467 11.0197 3.58C11.1661 3.17708 11.2134 2.74481 11.1574 2.31977C11.1014 1.89473 10.9438 1.48944 10.6979 1.13821C10.4521 0.786988 10.1253 0.500171 9.74507 0.302042C9.36488 0.103914 8.94255 0.000309799 8.51384 8.07944e-08Z" fill="#213F7D"/>
</g>
<defs>
<clipPath id="clip0_5423_60166">
<rect width="16" height="14.2222" fill="white"/>
</clipPath>
</defs>
</svg>
