<svg viewBox="0 0 16 13" fill="none" xmlns="http://www.w3.org/2000/svg">
<path opacity="0.4" d="M2.4 5.5999C2.71645 5.5999 3.02579 5.50606 3.28891 5.33025C3.55203 5.15444 3.75711 4.90456 3.87821 4.6122C3.99931 4.31984 4.03099 3.99813 3.96926 3.68776C3.90752 3.37739 3.75514 3.0923 3.53137 2.86853C3.30761 2.64477 3.02251 2.49238 2.71214 2.43065C2.40177 2.36891 2.08007 2.4006 1.78771 2.5217C1.49534 2.6428 1.24546 2.84787 1.06965 3.11099C0.893838 3.37411 0.8 3.68345 0.8 3.9999C0.800397 4.42413 0.969096 4.83086 1.26907 5.13084C1.56904 5.43081 1.97578 5.59951 2.4 5.5999ZM14.4 6.3999H12.8C12.3774 6.39945 11.9719 6.56668 11.6725 6.8649C12.1789 7.1405 12.613 7.53193 12.9392 8.00725C13.2655 8.48256 13.4748 9.02829 13.55 9.5999H15.2C15.4122 9.5999 15.6157 9.51562 15.7657 9.36559C15.9157 9.21556 16 9.01208 16 8.7999V7.9999C15.9996 7.57568 15.8309 7.16894 15.5309 6.86897C15.231 6.569 14.8242 6.4003 14.4 6.3999ZM1.6 6.3999C1.17578 6.4003 0.76904 6.569 0.469068 6.86897C0.169096 7.16894 0.000397152 7.57568 0 7.9999V8.7999C0 9.01208 0.0842855 9.21556 0.234315 9.36559C0.384344 9.51562 0.587827 9.5999 0.8 9.5999H2.4475C2.52367 9.02829 2.73362 8.4827 3.06028 8.00748C3.38694 7.53225 3.82111 7.14079 4.3275 6.8649C4.02809 6.56668 3.62259 6.39945 3.2 6.3999H1.6ZM13.6 5.5999C13.9165 5.5999 14.2258 5.50606 14.4889 5.33025C14.752 5.15444 14.9571 4.90456 15.0782 4.6122C15.1993 4.31984 15.231 3.99813 15.1693 3.68776C15.1075 3.37739 14.9551 3.0923 14.7314 2.86853C14.5076 2.64477 14.2225 2.49238 13.9121 2.43065C13.6018 2.36891 13.2801 2.4006 12.9877 2.5217C12.6953 2.6428 12.4455 2.84787 12.2696 3.11099C12.0938 3.37411 12 3.68345 12 3.9999C12.0004 4.42413 12.1691 4.83086 12.4691 5.13084C12.769 5.43081 13.1758 5.59951 13.6 5.5999Z" fill="#213F7D"/>
<path d="M9.92 7.20005H9.7125C9.17911 7.46076 8.59368 7.5975 8 7.60005C7.385 7.60005 6.81 7.45005 6.2875 7.20005H6.08C5.31623 7.20025 4.58381 7.50374 4.04375 8.0438C3.50369 8.58386 3.2002 9.31629 3.2 10.0801V10.8001C3.2 11.1183 3.32643 11.4235 3.55147 11.6486C3.77651 11.8736 4.08174 12.0001 4.4 12.0001H11.6C11.9183 12.0001 12.2235 11.8736 12.4485 11.6486C12.6736 11.4235 12.8 11.1183 12.8 10.8001V10.0801C12.7998 9.31629 12.4963 8.58386 11.9562 8.0438C11.4162 7.50374 10.6838 7.20025 9.92 7.20005ZM8 6.40005C8.55378 6.40005 9.09514 6.23583 9.55559 5.92816C10.0161 5.6205 10.3749 5.1832 10.5869 4.67156C10.7988 4.15993 10.8542 3.59694 10.7462 3.0538C10.6382 2.51065 10.3715 2.01174 9.9799 1.62015C9.58831 1.22856 9.0894 0.96189 8.54625 0.853851C8.0031 0.745813 7.44012 0.801262 6.92848 1.01319C6.41685 1.22511 5.97955 1.584 5.67188 2.04445C5.36421 2.50491 5.2 3.04626 5.2 3.60005C5.1998 3.96781 5.27209 4.332 5.41273 4.6718C5.55338 5.0116 5.75961 5.32035 6.01966 5.58039C6.2797 5.84043 6.58845 6.04667 6.92825 6.18731C7.26805 6.32796 7.63224 6.40025 8 6.40005Z" fill="#213F7D"/>
</svg>
