<svg viewBox="0 0 16 13" fill="none" xmlns="http://www.w3.org/2000/svg">
    <path opacity="0.4" d="M12 6.4001C12.4746 6.4001 12.9387 6.25934 13.3333 5.99563C13.728 5.73191 14.0356 5.35708 14.2173 4.91854C14.3989 4.48 14.4465 3.99744 14.3539 3.53188C14.2613 3.06633 14.0327 2.63869 13.697 2.30304C13.3614 1.9674 12.9337 1.73882 12.4682 1.64621C12.0026 1.55361 11.5201 1.60114 11.0815 1.78279C10.643 1.96444 10.2682 2.27205 10.0044 2.66673C9.74072 3.06141 9.59996 3.52542 9.59996 4.0001C9.59996 4.63662 9.85282 5.24707 10.3029 5.69715C10.753 6.14724 11.3635 6.4001 12 6.4001ZM13.2 7.2001H13.105C12.7575 7.3201 12.39 7.4001 12 7.4001C11.61 7.4001 11.2425 7.3201 10.895 7.2001H10.8C10.29 7.2001 9.81996 7.3476 9.40746 7.5851C10.0175 8.2426 10.4 9.1151 10.4 10.0801V11.0401C10.4 11.0951 10.3875 11.1476 10.385 11.2001H14.8C15.1182 11.2001 15.4235 11.0737 15.6485 10.8486C15.8736 10.6236 16 10.3184 16 10.0001C16.0002 9.63234 15.9279 9.26815 15.7873 8.92835C15.6466 8.58855 15.4404 8.2798 15.1803 8.01976C14.9203 7.75972 14.6115 7.55348 14.2717 7.41283C13.9319 7.27219 13.5677 7.1999 13.2 7.2001Z" fill="#213F7D"/>
    <path d="M4.8 6.40005C5.35379 6.40005 5.89514 6.23583 6.3556 5.92816C6.81605 5.6205 7.17494 5.1832 7.38686 4.67156C7.59879 4.15993 7.65424 3.59694 7.5462 3.0538C7.43816 2.51065 7.17149 2.01174 6.7799 1.62015C6.38831 1.22856 5.8894 0.96189 5.34625 0.853851C4.80311 0.745813 4.24012 0.801262 3.72849 1.01319C3.21685 1.22511 2.77955 1.584 2.47189 2.04445C2.16422 2.50491 2 3.04626 2 3.60005C1.9998 3.96781 2.07209 4.332 2.21274 4.6718C2.35338 5.0116 2.55962 5.32035 2.81966 5.58039C3.0797 5.84043 3.38845 6.04667 3.72825 6.18731C4.06805 6.32796 4.43224 6.40025 4.8 6.40005ZM6.72 7.20005H6.5125C5.97911 7.46076 5.39369 7.5975 4.8 7.60005C4.185 7.60005 3.61 7.45005 3.0875 7.20005H2.88C2.11624 7.20025 1.38381 7.50374 0.843752 8.0438C0.30369 8.58386 0.000198819 9.31629 0 10.0801L0 10.8001C0 11.1183 0.126428 11.4235 0.351472 11.6486C0.576515 11.8736 0.88174 12.0001 1.2 12.0001H8.4C8.71826 12.0001 9.02349 11.8736 9.24853 11.6486C9.47357 11.4235 9.6 11.1183 9.6 10.8001V10.0801C9.5998 9.31629 9.29631 8.58386 8.75625 8.0438C8.21619 7.50374 7.48376 7.20025 6.72 7.20005Z" fill="#213F7D"/>
</svg>
