<svg viewBox="0 0 16 13" fill="none" xmlns="http://www.w3.org/2000/svg">
<g clip-path="url(#clip0_5423_60218)">
<path opacity="0.4" d="M15.915 3.98992C15.9697 4.04632 16 4.1219 15.9995 4.20043C15.9991 4.27895 15.9678 4.35417 15.9125 4.40992L12.38 7.91492C12.3523 7.94239 12.3195 7.96412 12.2833 7.97887C12.2472 7.99362 12.2085 8.00109 12.1695 8.00086C12.1305 8.00062 12.0919 7.99269 12.056 7.97752C12.02 7.96234 11.9874 7.94022 11.96 7.91242L9.91753 5.85492C9.89006 5.82721 9.86833 5.79435 9.85358 5.75822C9.83883 5.7221 9.83136 5.68342 9.83159 5.6444C9.83183 5.60538 9.83976 5.56679 9.85493 5.53084C9.87011 5.4949 9.89223 5.4623 9.92003 5.43492L10.6225 4.73742C10.6502 4.70995 10.6831 4.68821 10.7192 4.67347C10.7554 4.65872 10.794 4.65125 10.8331 4.65148C10.8721 4.65171 10.9107 4.65964 10.9466 4.67482C10.9826 4.69 11.0152 4.71212 11.0425 4.73992L12.18 5.88492L14.8 3.28492C14.8277 3.25745 14.8606 3.23571 14.8967 3.22097C14.9329 3.20622 14.9715 3.19875 15.0106 3.19898C15.0496 3.19921 15.0882 3.20714 15.1241 3.22232C15.1601 3.2375 15.1927 3.25962 15.22 3.28742L15.915 3.98992Z" fill="#213F7D"/>
<path d="M5.6 6.4C6.2329 6.4 6.85159 6.21233 7.37782 5.8607C7.90406 5.50908 8.31421 5.00931 8.55641 4.42459C8.79862 3.83986 8.86199 3.19645 8.73851 2.57571C8.61504 1.95497 8.31027 1.38479 7.86274 0.93726C7.41521 0.489732 6.84503 0.184961 6.22429 0.0614885C5.60355 -0.0619842 4.96014 0.0013865 4.37541 0.243587C3.79069 0.485787 3.29092 0.895939 2.9393 1.42218C2.58768 1.94841 2.4 2.5671 2.4 3.2C2.4 4.04869 2.73714 4.86263 3.33726 5.46274C3.93737 6.06286 4.75131 6.4 5.6 6.4ZM7.84 7.2H7.4225C6.85106 7.46352 6.22927 7.59999 5.6 7.59999C4.97073 7.59999 4.34894 7.46352 3.7775 7.2H3.36C2.46893 7.2002 1.61442 7.55426 0.984341 8.18434C0.354262 8.81442 0.000198832 9.66893 0 10.56L0 11.6C0 11.9183 0.126428 12.2235 0.351472 12.4485C0.576515 12.6736 0.88174 12.8 1.2 12.8H10C10.3183 12.8 10.6235 12.6736 10.8485 12.4485C11.0736 12.2235 11.2 11.9183 11.2 11.6V10.56C11.1998 9.66893 10.8457 8.81442 10.2157 8.18434C9.58558 7.55426 8.73107 7.2002 7.84 7.2Z" fill="#213F7D"/>
</g>
<defs>
<clipPath id="clip0_5423_60218">
<rect width="16" height="12.8" fill="white"/>
</clipPath>
</defs>
</svg>
